<mxfile host="app.diagrams.net" modified="2024-04-30T10:35:30.639Z" agent="Mozilla/5.0 (Windows NT 10.0; Win64; x64) AppleWebKit/537.36 (KHTML, like Gecko) Chrome/124.0.0.0 Safari/537.36" etag="9ApHRR5LGlLfp7jOGngw" version="24.2.2" type="device">
  <diagram name="Сторінка-1" id="VTJN3MSkJe0x6ljxMoBh">
    <mxGraphModel dx="1687" dy="868" grid="1" gridSize="10" guides="1" tooltips="1" connect="1" arrows="1" fold="1" page="1" pageScale="1" pageWidth="827" pageHeight="1169" math="0" shadow="0">
      <root>
        <mxCell id="0" />
        <mxCell id="1" parent="0" />
        <mxCell id="aZCfTGFi_OvXpp3rXC6w-1" value="&amp;lt;&amp;lt;execution environment&amp;gt;&amp;gt;&lt;div&gt;&lt;br&gt;&lt;/div&gt;&lt;div style=&quot;text-align: left;&quot;&gt;Application Server:&lt;/div&gt;&lt;div style=&quot;text-align: left;&quot;&gt;Node.js&lt;/div&gt;&lt;div&gt;&lt;br&gt;&lt;/div&gt;" style="verticalAlign=top;align=center;spacingTop=8;spacingLeft=2;spacingRight=12;shape=cube;size=10;direction=south;fontStyle=4;html=1;whiteSpace=wrap;" vertex="1" parent="1">
          <mxGeometry x="20" y="200" width="280" height="220" as="geometry" />
        </mxCell>
        <mxCell id="aZCfTGFi_OvXpp3rXC6w-2" value="&amp;lt;&amp;lt;artifact&amp;gt;&amp;gt;&lt;div&gt;API Server Application&lt;/div&gt;&lt;div&gt;Authentification module&lt;/div&gt;&lt;div&gt;Comment module&lt;/div&gt;&lt;div&gt;Event module&lt;/div&gt;&lt;div&gt;Likes module&lt;/div&gt;&lt;div&gt;Ticket module&lt;/div&gt;&lt;div&gt;User module&lt;/div&gt;" style="html=1;dropTarget=0;whiteSpace=wrap;" vertex="1" parent="1">
          <mxGeometry x="70" y="290" width="180" height="120" as="geometry" />
        </mxCell>
        <mxCell id="aZCfTGFi_OvXpp3rXC6w-3" value="" style="shape=module;jettyWidth=8;jettyHeight=4;" vertex="1" parent="aZCfTGFi_OvXpp3rXC6w-2">
          <mxGeometry x="1" width="20" height="20" relative="1" as="geometry">
            <mxPoint x="-27" y="7" as="offset" />
          </mxGeometry>
        </mxCell>
        <mxCell id="aZCfTGFi_OvXpp3rXC6w-4" value="&amp;lt;&amp;lt;execution environment&amp;gt;&amp;gt;&lt;div&gt;&lt;br&gt;&lt;/div&gt;&lt;div&gt;WebServer: Node.js&lt;/div&gt;" style="verticalAlign=top;align=center;spacingTop=8;spacingLeft=2;spacingRight=12;shape=cube;size=10;direction=south;fontStyle=4;html=1;whiteSpace=wrap;" vertex="1" parent="1">
          <mxGeometry x="20" y="490" width="280" height="220" as="geometry" />
        </mxCell>
        <mxCell id="aZCfTGFi_OvXpp3rXC6w-5" value="&amp;lt;&amp;lt;artifact&amp;gt;&amp;gt;&lt;div&gt;Static files&lt;/div&gt;&lt;div&gt;React Application&lt;/div&gt;&lt;div&gt;Zustand Store&lt;/div&gt;&lt;div&gt;Stripe Webhook&lt;/div&gt;" style="html=1;dropTarget=0;whiteSpace=wrap;" vertex="1" parent="1">
          <mxGeometry x="70" y="580" width="180" height="120" as="geometry" />
        </mxCell>
        <mxCell id="aZCfTGFi_OvXpp3rXC6w-6" value="" style="shape=module;jettyWidth=8;jettyHeight=4;" vertex="1" parent="aZCfTGFi_OvXpp3rXC6w-5">
          <mxGeometry x="1" width="20" height="20" relative="1" as="geometry">
            <mxPoint x="-27" y="7" as="offset" />
          </mxGeometry>
        </mxCell>
        <mxCell id="aZCfTGFi_OvXpp3rXC6w-8" value="&lt;div&gt;&amp;lt;&amp;lt;device&amp;gt;&amp;gt;&lt;/div&gt;&lt;div&gt;&lt;br&gt;&lt;/div&gt;&lt;div style=&quot;text-align: left;&quot;&gt;DB Server:&lt;/div&gt;&lt;div style=&quot;text-align: left;&quot;&gt;PostgreSQL&lt;/div&gt;" style="verticalAlign=top;align=center;spacingTop=8;spacingLeft=2;spacingRight=12;shape=cube;size=10;direction=south;fontStyle=4;html=1;whiteSpace=wrap;" vertex="1" parent="1">
          <mxGeometry x="490" y="200" width="280" height="220" as="geometry" />
        </mxCell>
        <mxCell id="aZCfTGFi_OvXpp3rXC6w-9" value="&amp;lt;&amp;lt;artifact&amp;gt;&amp;gt;&lt;div&gt;Database Schema&lt;/div&gt;&lt;div&gt;db.sql&lt;/div&gt;&lt;div&gt;Initial Data Scripts&lt;/div&gt;" style="html=1;dropTarget=0;whiteSpace=wrap;" vertex="1" parent="1">
          <mxGeometry x="540" y="290" width="180" height="120" as="geometry" />
        </mxCell>
        <mxCell id="aZCfTGFi_OvXpp3rXC6w-10" value="" style="shape=module;jettyWidth=8;jettyHeight=4;" vertex="1" parent="aZCfTGFi_OvXpp3rXC6w-9">
          <mxGeometry x="1" width="20" height="20" relative="1" as="geometry">
            <mxPoint x="-27" y="7" as="offset" />
          </mxGeometry>
        </mxCell>
        <mxCell id="aZCfTGFi_OvXpp3rXC6w-12" value="&lt;div&gt;&amp;lt;&amp;lt;device&amp;gt;&amp;gt;&lt;/div&gt;&lt;div&gt;&lt;br&gt;&lt;/div&gt;&lt;div style=&quot;text-align: left;&quot;&gt;User Client&lt;/div&gt;" style="verticalAlign=top;align=center;spacingTop=8;spacingLeft=2;spacingRight=12;shape=cube;size=10;direction=south;fontStyle=4;html=1;whiteSpace=wrap;" vertex="1" parent="1">
          <mxGeometry x="490" y="490" width="280" height="220" as="geometry" />
        </mxCell>
        <mxCell id="aZCfTGFi_OvXpp3rXC6w-15" value="&amp;lt;&amp;lt;execution environment&amp;gt;&amp;gt;&lt;div&gt;Browser&lt;/div&gt;" style="verticalAlign=top;align=center;spacingTop=8;spacingLeft=2;spacingRight=12;shape=cube;size=10;direction=south;fontStyle=4;html=1;whiteSpace=wrap;" vertex="1" parent="1">
          <mxGeometry x="510" y="570" width="230" height="130" as="geometry" />
        </mxCell>
        <mxCell id="aZCfTGFi_OvXpp3rXC6w-16" value="&amp;lt;&amp;lt;artifact&amp;gt;&amp;gt;&lt;div&gt;User Interface&lt;/div&gt;&lt;div&gt;User Session&lt;/div&gt;" style="html=1;dropTarget=0;whiteSpace=wrap;" vertex="1" parent="1">
          <mxGeometry x="530" y="630" width="180" height="50" as="geometry" />
        </mxCell>
        <mxCell id="aZCfTGFi_OvXpp3rXC6w-17" value="" style="shape=module;jettyWidth=8;jettyHeight=4;" vertex="1" parent="aZCfTGFi_OvXpp3rXC6w-16">
          <mxGeometry x="1" width="20" height="20" relative="1" as="geometry">
            <mxPoint x="-27" y="7" as="offset" />
          </mxGeometry>
        </mxCell>
        <mxCell id="aZCfTGFi_OvXpp3rXC6w-18" value="" style="endArrow=none;html=1;rounded=0;" edge="1" parent="1">
          <mxGeometry relative="1" as="geometry">
            <mxPoint x="300" y="320" as="sourcePoint" />
            <mxPoint x="490" y="320" as="targetPoint" />
          </mxGeometry>
        </mxCell>
        <mxCell id="aZCfTGFi_OvXpp3rXC6w-22" value="TCP/IP: 5432" style="edgeLabel;html=1;align=center;verticalAlign=middle;resizable=0;points=[];" vertex="1" connectable="0" parent="aZCfTGFi_OvXpp3rXC6w-18">
          <mxGeometry x="0.0905" y="-1" relative="1" as="geometry">
            <mxPoint as="offset" />
          </mxGeometry>
        </mxCell>
        <mxCell id="aZCfTGFi_OvXpp3rXC6w-19" value="" style="endArrow=none;html=1;rounded=0;" edge="1" parent="1">
          <mxGeometry relative="1" as="geometry">
            <mxPoint x="300" y="599.8299999999999" as="sourcePoint" />
            <mxPoint x="490" y="599.8299999999999" as="targetPoint" />
          </mxGeometry>
        </mxCell>
        <mxCell id="aZCfTGFi_OvXpp3rXC6w-23" value="HTTP:5173" style="edgeLabel;html=1;align=center;verticalAlign=middle;resizable=0;points=[];" vertex="1" connectable="0" parent="aZCfTGFi_OvXpp3rXC6w-19">
          <mxGeometry x="-0.0695" y="-2" relative="1" as="geometry">
            <mxPoint as="offset" />
          </mxGeometry>
        </mxCell>
        <mxCell id="aZCfTGFi_OvXpp3rXC6w-20" value="" style="endArrow=none;html=1;rounded=0;exitX=0;exitY=0;exitDx=220;exitDy=145;exitPerimeter=0;entryX=0;entryY=0.501;entryDx=0;entryDy=0;entryPerimeter=0;" edge="1" parent="1" target="aZCfTGFi_OvXpp3rXC6w-4">
          <mxGeometry relative="1" as="geometry">
            <mxPoint x="159.32" y="420" as="sourcePoint" />
            <mxPoint x="159" y="490" as="targetPoint" />
          </mxGeometry>
        </mxCell>
        <mxCell id="aZCfTGFi_OvXpp3rXC6w-21" value="HTTP:5000" style="edgeLabel;html=1;align=center;verticalAlign=middle;resizable=0;points=[];" vertex="1" connectable="0" parent="aZCfTGFi_OvXpp3rXC6w-20">
          <mxGeometry x="-0.0799" relative="1" as="geometry">
            <mxPoint as="offset" />
          </mxGeometry>
        </mxCell>
      </root>
    </mxGraphModel>
  </diagram>
</mxfile>
